<svg xmlns="http://www.w3.org/2000/svg" viewBox="0 0 148.54 225.8"><defs><style>.cls-1{fill:#333;}</style></defs><title>life-time-icn-darkgrey</title><g id="Layer_2" data-name="Layer 2"><g id="Layer_1-2" data-name="Layer 1"><path class="cls-1" d="M107.9,84.88a14,14,0,0,0,3.4-2A43.59,43.59,0,0,1,98,97.2a66.59,66.59,0,0,1-15.89,7.53s4.55.91,13.13-1.91,11.16-6.13,11.16-6.13a54.89,54.89,0,0,1-13,24.09c-10.25,10.75-15.94,11.91-15.94,11.91l4.62,33.71s-.64-.28-2.4,2.28a11.1,11.1,0,0,0-1.88,5.3l-6.18-45.83s-16.79-25.78,5-75.26c7.24-16.47,15.88-27.81,24.18-35.65l3.41,8,.88-11.77C120,1.29,132.76,0,132.76,0a19.41,19.41,0,0,0-5.7,3.66,16.17,16.17,0,0,0-2.66,3.67,13.66,13.66,0,0,0,5.82-2.12c2.64-1.84,5-4.39,8.88-3s2.85,4.58,5.26,8.92,6.82,5.27,2.07,11c-.06.06-.11.13-.17.2s-4.07,4.94-5.36,6.6-1.55,1.67-1.55,1.67L128.48,35.2l9.34-.72s-8.34,10.77-11.32,17-5.34,11.31-7.12,12.85S110,70,110,70a31.5,31.5,0,0,0,6.19-.86A10.74,10.74,0,0,0,119.26,68a35.18,35.18,0,0,1-7.19,10,106.06,106.06,0,0,1-10.65,8.49A19.67,19.67,0,0,0,107.9,84.88ZM136.67,6.53c-19.86,7.24-40.4,29.84-52.54,60.67-8.26,21-11.14,42-9.17,59.35.23-16.68,4-35.72,11.55-54.9C98.73,40.62,117.87,16.85,136.67,6.53Z"/><path class="cls-1" d="M46.9,136a13.68,13.68,0,0,0,1.6-3.59,43.54,43.54,0,0,1-2.4,19.35,66.84,66.84,0,0,1-8.49,15.4s4.22-1.92,9.54-9.22,5.46-11.5,5.46-11.5a54.74,54.74,0,0,1,3.56,27.13c-2,14.71-6,19-6,19l23.45,24.64s-.68.15-.61,3.26a11.13,11.13,0,0,0,1.57,5.4l-31.8-33.57s-28.7-11.1-40-63.95C-.92,110.68-.54,96.43,1.62,85.21l7.44,4.5L2.89,79.65C7.84,61.06,17.44,52.56,17.44,52.56A19.54,19.54,0,0,0,15,58.86a16.15,16.15,0,0,0,0,4.53,13.59,13.59,0,0,0,3.48-5.13c1.07-3,1.46-6.46,5.44-7.63s5,2,9.49,4.16,8.61.29,8.08,7.67l0,.26s-.41,6.39-.48,8.49-.29,2.26-.29,2.26L34.55,83.62l7.15-6s-.47,13.6.75,20.39,2.27,12.29,1.73,14.58-4.3,10.1-4.3,10.1a31.5,31.5,0,0,0,4.52-4.31,10.74,10.74,0,0,0,1.82-2.74,34.88,34.88,0,0,1,0,12.29A105.9,105.9,0,0,1,42.54,141,19.71,19.71,0,0,0,46.9,136ZM24.43,55.56C12.55,73.06,9.1,103.4,17.27,135.5c5.57,21.87,15.51,40.58,27.26,53.52C35,175.35,26.89,157.7,21.81,137.73,13.58,105.41,15.21,74.93,24.43,55.56Z"/></g></g></svg>