<svg xmlns="http://www.w3.org/2000/svg" viewBox="0 0 172.02 88.04"><defs><style>.cls-1{fill:#0079c2;}</style></defs><title>quick-ship-icn-blu</title><g id="Layer_2" data-name="Layer 2"><g id="Layer_2-2" data-name="Layer 2"><path class="cls-1" d="M7.89,27c0-2.58,2.43-2.82,3.71-2.88,5.78-.27,12.32-.12,18.29-.12V16c13,0,25.52-.23,38.3-.24a23,23,0,0,0,5-.22C78.89,14,78.89,9,78.89,9,73,8.58,66.9,8.69,61,8.31,48.36,7.51,35.72,6.88,23.09,6,20.43,5.77,15.89,6,16,2.65,16.1,0,20.35.08,22.8.07,52.46,0,82.12,0,111.77,0c6.28,0,6.87.57,6.89,6.78q.07,22.21.11,44.44a9.54,9.54,0,0,0,.07,3c.61,1.82-1,4.82,2.31,5.3,2.74-.48,2.38-3.36,2.46-5.09.29-6.15.1-12.32.09-18.48,0-4.82,0-9.65,0-14.48,0-3.09,1.32-4.59,4.53-4.52,4.83.11,9.67-.12,14.49.08,8.34.33,17.21,9,18.21,21,.32,7.8,2.59,6.7,7,10,4,3,4,5,4,8.43,0,3.77.2,7.63.15,11.46-.07,5.76-1.63,7.13-7.59,6.79-3.21-11.56-9.14-17-18.42-16.84-9.1.13-14.87,5.62-17.56,16.91H87c-.27-.9-.59-1.83-.81-2.78-2-8.3-7.45-13.52-15.94-14.11C49.61,56.46,29,55.33,8.38,54.08c-1-.06-1.49,0-3-.15C2.74,53.73-.11,54,0,50.86-.11,48,3.65,48.3,5.52,48.23,13.3,47.93,21.8,48,29.89,48V40c11.14,0,21.87-.19,32.82-.14,4,0,7.14-1.08,8.37-6.13-7.17-.55-14.07-1.13-21-1.59-12.12-.82-35-1.93-37.2-2.14C11.07,29.87,7.87,29.63,7.89,27Zm127.18,0V43.91h16.58C152.22,31.77,146.78,26.14,135.07,27Z"/><path class="cls-1" d="M29.89,64h26c-3,3-4,7-4,11h-17c-4,0-5-2.34-5-4Z"/><path class="cls-1" d="M81.89,75a13,13,0,1,1-13-13A13,13,0,0,1,81.89,75Zm-13-5a5,5,0,1,0,5,5A5,5,0,0,0,68.89,70Z"/><path class="cls-1" d="M159.89,75a13,13,0,1,1-13-13A13,13,0,0,1,159.89,75Zm-13-5a5,5,0,1,0,5,5A5,5,0,0,0,146.89,70Z"/></g></g></svg>