<svg xmlns="http://www.w3.org/2000/svg" viewBox="0 0 141.35 237.94"><defs><style>.cls-1{fill:#0071bb;}</style></defs><title>blu-q</title><g id="Layer_2" data-name="Layer 2"><g id="Layer_1-2" data-name="Layer 1"><path class="cls-1" d="M136.38,105.76C149.27,45.79,137.81.11,93.27,0S17.89,45.47,5,105.43,3.35,211.07,47.89,211.18c2,0,4-.12,5.91-.29l10.59,27.05h36.32l-16.79-38C109.29,182.88,127.33,147.88,136.38,105.76ZM86.63,128.67a15.29,15.29,0,0,0,3.14-3S87,136.41,79.24,144.48a73.86,73.86,0,0,1-15.12,12.25s5.13-.21,13.62-5.48,10.39-9.5,10.39-9.5A60.6,60.6,0,0,1,80.47,171c-8.21,14.22-14,17-14,17L80.2,223s-.76-.14-2,3.08a12.33,12.33,0,0,0-.64,6.18L59,184.63s-24.77-23.34-14.29-82.19c3.49-19.6,9.82-34,16.71-44.64l5.74,7.71L65,52.63C77.85,35.66,91.22,31,91.22,31s-3.65,2.68-5.17,5.41A18.37,18.37,0,0,0,84.14,41a15,15,0,0,0,5.71-3.81c2.36-2.66,4.19-6,8.75-5.55s4.26,4.18,8,8.22,8.71,3.88,5.08,11.22c0,.09-.08.18-.13.27s-3.09,6.37-4,8.49S106.26,62,106.26,62L95.8,69.91l9.85-3.21s-6.16,13.74-7.73,21.2-2.81,13.55-4.31,15.66S85,112.12,85,112.12a34.81,34.81,0,0,0,6.43-2.53,12.24,12.24,0,0,0,3-2,38.73,38.73,0,0,1-5.13,12.58A117.64,117.64,0,0,1,80.06,132,22,22,0,0,0,86.63,128.67Z"/><path class="cls-1" d="M97.13,36.94c-19.47,13-35.65,42.62-40.66,78.92-3.41,24.72-1,48,5.61,66.19-4.09-18-5-39.44-1.9-62C65.23,83.49,79.61,52.94,97.13,36.94Z"/></g></g></svg>