<svg xmlns="http://www.w3.org/2000/svg" xmlns:xlink="http://www.w3.org/1999/xlink" viewBox="0 0 72.31 49.81"><defs><style>.cls-1{fill:none;}.cls-2{isolation:isolate;}.cls-3{fill:#aa3679;}.cls-4,.cls-7{opacity:0.15;mix-blend-mode:multiply;}.cls-5{clip-path:url(#clip-path);}.cls-6,.cls-7{fill:#bbbdbf;}</style><clipPath id="clip-path"><rect class="cls-1" x="38.78" y="10.47" width="17.25" height="29.02"/></clipPath></defs><title>points_plus_icons_1</title><g class="cls-2"><g id="Layer_2" data-name="Layer 2"><g id="Layer_1-2" data-name="Layer 1"><rect class="cls-3" x="38.77" width="17.25" height="49.81"/><g class="cls-4"><g class="cls-5"><path class="cls-6" d="M56,39.49s-1.64-.77-8.65-.79-8.6.79-8.6.79v-29a42.17,42.17,0,0,0,8.54.8,41.46,41.46,0,0,0,8.71-.8Z"/></g></g><polygon class="cls-3" points="22.5 16.28 22.5 24.9 31.75 24.9 31.75 33.53 72.31 33.53 72.31 16.28 22.5 16.28"/><rect class="cls-3" x="9.59" y="17.53" width="10.16" height="29.34"/><path class="cls-7" d="M19.75,40.79s-1-.45-5.1-.47-5.06.47-5.06.47V23.7a24.7,24.7,0,0,0,5,.47,24.66,24.66,0,0,0,5.13-.47Z"/><rect class="cls-3" y="27.12" width="29.34" height="10.16"/></g></g></g></svg>